# xmcd CD database file generated by OrangeCD 5.1
#
# Track frame offsets:
#	150
#	21545
#	38594
#
# Disc length: 761 seconds
#
# Revision: 0
# Processed by: cddbd v1.5PL3 Copyright (c) Steve Scherf et al.
# Submitted via: OrangeCD 5.1
#
DISCID=1d02f703
DTITLE=Earle, Steve And The Del McCoury Band - The Mountain
DYEAR=1999
DGENRE=Country
TTITLE0=The Mountain
TTITLE1=Copperhead road (Live)
TTITLE2=I Ain't Ever Satisfied (Live)
EXTD=
EXTT0=
EXTT1=
EXTT2=
PLAYORDER=
